<svg width="113" height="23" viewBox="0 0 113 23" fill="none" xmlns="http://www.w3.org/2000/svg">
<path d="M10.6586 1.30996C11.0522 0.697196 11.9478 0.697195 12.3414 1.30996L15.21 5.77603C15.3454 5.98686 15.555 6.13917 15.7974 6.20281L20.9313 7.55089C21.6357 7.73586 21.9125 8.58764 21.4513 9.15131L18.0903 13.2596C17.9316 13.4535 17.8515 13.7 17.8659 13.9501L18.1703 19.2494C18.212 19.9764 17.4874 20.5029 16.8089 20.2385L11.863 18.3115C11.6296 18.2205 11.3704 18.2205 11.137 18.3115L6.19114 20.2385C5.51256 20.5029 4.78798 19.9764 4.82974 19.2494L5.13411 13.9501C5.14848 13.7 5.06841 13.4535 4.90974 13.2596L1.54869 9.15131C1.08754 8.58764 1.3643 7.73586 2.0687 7.55089L7.20262 6.20281C7.44498 6.13917 7.65462 5.98686 7.79004 5.77603L10.6586 1.30996Z" fill="url(#paint0_radial_68_531)"/>
<path d="M33.148 1.38684C33.5383 0.751471 34.4617 0.751471 34.852 1.38684L37.5434 5.76751C37.6762 5.98363 37.8861 6.14121 38.1307 6.20836L43.0131 7.54866C43.7018 7.73771 43.976 8.56686 43.5359 9.12926L40.2993 13.2652C40.15 13.456 40.0751 13.6945 40.0884 13.9363L40.379 19.2271C40.4193 19.9598 39.6829 20.4849 39.0033 20.208L34.3772 18.3237C34.1354 18.2252 33.8646 18.2252 33.6228 18.3237L28.9967 20.208C28.3171 20.4849 27.5807 19.9598 27.621 19.2271L27.9116 13.9363C27.9249 13.6945 27.85 13.456 27.7007 13.2652L24.4641 9.12926C24.024 8.56686 24.2982 7.73771 24.9869 7.54866L29.8693 6.20836C30.1139 6.14121 30.3238 5.98363 30.4566 5.76751L33.148 1.38684Z" fill="url(#paint1_radial_68_531)"/>
<path d="M55.6586 1.30996C56.0522 0.697196 56.9478 0.697195 57.3414 1.30996L60.21 5.77603C60.3454 5.98686 60.555 6.13917 60.7974 6.20281L65.9313 7.55089C66.6357 7.73586 66.9125 8.58764 66.4513 9.15131L63.0903 13.2596C62.9316 13.4535 62.8515 13.7 62.8659 13.9501L63.1703 19.2494C63.212 19.9764 62.4874 20.5029 61.8089 20.2385L56.863 18.3115C56.6296 18.2205 56.3704 18.2205 56.137 18.3115L51.1911 20.2385C50.5126 20.5029 49.788 19.9764 49.8297 19.2494L50.1341 13.9501C50.1485 13.7 50.0684 13.4535 49.9097 13.2596L46.5487 9.15131C46.0875 8.58764 46.3643 7.73586 47.0687 7.55089L52.2026 6.20281C52.445 6.13917 52.6546 5.98686 52.79 5.77603L55.6586 1.30996Z" fill="url(#paint2_radial_68_531)"/>
<path d="M78.148 1.38684C78.5383 0.751471 79.4617 0.751471 79.852 1.38684L82.5434 5.76751C82.6762 5.98363 82.8861 6.14121 83.1307 6.20836L88.0131 7.54866C88.7018 7.73771 88.976 8.56686 88.5359 9.12926L85.2993 13.2652C85.15 13.456 85.0751 13.6945 85.0884 13.9363L85.379 19.2271C85.4193 19.9598 84.6829 20.4849 84.0033 20.208L79.3772 18.3237C79.1354 18.2252 78.8646 18.2252 78.6228 18.3237L73.9967 20.208C73.3171 20.4849 72.5807 19.9598 72.621 19.2271L72.9116 13.9363C72.9249 13.6945 72.85 13.456 72.7007 13.2652L69.4641 9.12926C69.024 8.56686 69.2982 7.73771 69.9869 7.54866L74.8693 6.20836C75.1139 6.14121 75.3238 5.98363 75.4566 5.76751L78.148 1.38684Z" fill="url(#paint3_radial_68_531)"/>
<path d="M100.659 1.30996C101.052 0.697196 101.948 0.697195 102.341 1.30996L105.21 5.77603C105.345 5.98686 105.555 6.13917 105.797 6.20281L110.931 7.55089C111.636 7.73586 111.912 8.58764 111.451 9.15131L108.09 13.2596C107.932 13.4535 107.852 13.7 107.866 13.9501L108.17 19.2494C108.212 19.9764 107.487 20.5029 106.809 20.2385L101.863 18.3115C101.63 18.2205 101.37 18.2205 101.137 18.3115L96.1911 20.2385C95.5126 20.5029 94.788 19.9764 94.8297 19.2494L95.1341 13.9501C95.1485 13.7 95.0684 13.4535 94.9097 13.2596L91.5487 9.15131C91.0875 8.58764 91.3643 7.73586 92.0687 7.55089L97.2026 6.20281C97.445 6.13917 97.6546 5.98686 97.79 5.77603L100.659 1.30996Z" fill="url(#paint4_radial_68_531)"/>
<defs>
<radialGradient id="paint0_radial_68_531" cx="0" cy="0" r="1" gradientUnits="userSpaceOnUse" gradientTransform="translate(23.8299 27.268) rotate(-134.346) scale(44.0986)">
<stop offset="0.5" stop-color="#FFCF39"/>
<stop offset="0.5" stop-color="#F2C331"/>
</radialGradient>
<radialGradient id="paint1_radial_68_531" cx="0" cy="0" r="1" gradientUnits="userSpaceOnUse" gradientTransform="translate(45.7938 27.268) rotate(-133.074) scale(43.1725 43.0862)">
<stop offset="0.5" stop-color="#FFCF39"/>
<stop offset="0.5" stop-color="#F2C331"/>
</radialGradient>
<radialGradient id="paint2_radial_68_531" cx="0" cy="0" r="1" gradientUnits="userSpaceOnUse" gradientTransform="translate(68.8299 27.268) rotate(-134.346) scale(44.0986)">
<stop offset="0.5" stop-color="#FFCF39"/>
<stop offset="0.5" stop-color="#F2C331"/>
</radialGradient>
<radialGradient id="paint3_radial_68_531" cx="0" cy="0" r="1" gradientUnits="userSpaceOnUse" gradientTransform="translate(90.7938 27.268) rotate(-133.074) scale(43.1725 43.0862)">
<stop offset="0.5" stop-color="#FFCF39"/>
<stop offset="0.5" stop-color="#F2C331"/>
</radialGradient>
<radialGradient id="paint4_radial_68_531" cx="0" cy="0" r="1" gradientUnits="userSpaceOnUse" gradientTransform="translate(113.83 27.268) rotate(-134.346) scale(44.0986)">
<stop offset="0.5" stop-color="#FFCF39"/>
<stop offset="0.5" stop-color="#F2C331"/>
</radialGradient>
</defs>
</svg>
